FFmpeg version SVN-r25716, Copyright (c) 2000-2010 the FFmpeg developers  built on Nov 10 2010 12:23:18 with gcc 4.1.2 20080704 (Red Hat 4.1.2-48)  configuration: --enable-libmp3lame --enable-shared --disable-mmx --arch=x86_64  libavutil     50.33. 0 / 50.33. 0  libavcore      0.12. 1 /  0.12. 1  libavcodec    52.94. 4 / 52.94. 4  libavformat   52.84. 0 / 52.84. 0  libavdevice   52. 2. 2 / 52. 2. 2  libavfilter    1.59. 0 /  1.59. 0  libswscale     0.12. 0 /  0.12. 0Input #0, avi, from '/RAID10/data/converted_video_files/11968.avi':  Duration: 00:00:09.04, start: 0.000000, bitrate: 7014 kb/s    Stream #0.0: Video: mpeg4, yuv420p, 704x480 [PAR 1:1 DAR 22:15], 25 tbr, 29.97 tbn, 25 tbc    Stream #0.1: Audio: ac3, 48000 Hz, stereo, s16, 256 kb/s[buffer @ 0x1450fa90] w:704 h:480 pixfmt:yuv420pOutput #0, flv, to '/RAID10/data/converted_video_files/11968.flv':  Metadata:    encoder         : Lavf52.84.0    Stream #0.0: Video: flv, yuv420p, 704x480 [PAR 1:1 DAR 22:15], q=2-31, 600 kb/s, 1k tbn, 24 tbc    Stream #0.1: Audio: libmp3lame, 22050 Hz, stereo, s16, 96 kb/sStream mapping:  Stream #0.0 -> #0.0  Stream #0.1 -> #0.1Press [q] to stop encodingframe=   30 fps=  0 q=23.4 size=     256kB time=1.29 bitrate=1624.5kbits/s dup=0 drop=7    frame=   66 fps= 61 q=26.3 size=     395kB time=2.79 bitrate=1158.2kbits/s dup=0 drop=16    frame=   99 fps= 60 q=22.7 size=     520kB time=4.17 bitrate=1021.6kbits/s dup=0 drop=24    frame=  127 fps= 53 q=27.7 size=     624kB time=5.33 bitrate= 957.7kbits/s dup=0 drop=32    frame=  135 fps= 52 q=27.5 size=     654kB time=5.67 bitrate= 945.6kbits/s dup=0 drop=33    frame=  168 fps= 54 q=31.0 size=     787kB time=7.04 bitrate= 915.0kbits/s dup=0 drop=42    frame=  204 fps= 57 q=28.4 size=     918kB time=8.54 bitrate= 880.9kbits/s dup=0 drop=50    frame=  217 fps= 58 q=16.6 Lsize=     964kB time=9.08 bitrate= 869.5kbits/s dup=0 drop=54    video:848kB audio:107kB global headers:0kB muxing overhead 0.958688%